<svg id="圖層_1" data-name="圖層 1" xmlns="http://www.w3.org/2000/svg" viewBox="0 0 11.49 13.13"><defs><style>.cls-1{fill:#405362;}</style></defs><path class="cls-1" d="M.8,11.49a1.66,1.66,0,0,0,1.64,1.64H9a1.65,1.65,0,0,0,1.64-1.64V3.28H.8ZM5.23,9.84a.39.39,0,0,1-.56,0L3.08,8.25a.39.39,0,0,1,0-.56.4.4,0,0,1,.56,0L4.94,9,7.85,6.1a.4.4,0,0,1,.56,0,.39.39,0,0,1,0,.56Z"/><path class="cls-1" d="M10.67.82H8.21L8,.45A.83.83,0,0,0,7.29,0H4.2a.83.83,0,0,0-.73.45L3.28.82H.82a.82.82,0,0,0,0,1.64h9.85a.82.82,0,1,0,0-1.64Z"/></svg>