<svg id="圖層_1" data-name="圖層 1" xmlns="http://www.w3.org/2000/svg" viewBox="0 0 179.01 150.3"><defs><style>.cls-1{fill:#405362;}.cls-2{fill:#ccc;}.cls-3{fill:#fff;}.cls-4{fill:none;stroke:#405362;stroke-miterlimit:10;}.cls-5{fill:#3f3d56;}.cls-6{fill:#ffd3b9;}.cls-7{fill:#2f2e41;}</style></defs><path class="cls-1" d="M118.62,93.78H53.05a8.39,8.39,0,0,1-8.38-8.39v-77A8.39,8.39,0,0,1,53.05,0h61l13,10.33V85.39A8.39,8.39,0,0,1,118.62,93.78Z"/><path class="cls-2" d="M105.87,24.81H76A1.4,1.4,0,0,1,76,22h29.86a1.4,1.4,0,0,1,0,2.8Z"/><path class="cls-3" d="M53.05,2.41a6,6,0,0,0-6,6v77a6,6,0,0,0,6,6h65.57a6,6,0,0,0,6-6V11.49L113.21,2.41Z"/><path class="cls-2" d="M111.63,29.52H76a1.4,1.4,0,1,1,0-2.79h35.62a1.4,1.4,0,1,1,0,2.79Z"/><path class="cls-2" d="M105.87,45.93H76a1.4,1.4,0,0,1,0-2.79h29.86a1.4,1.4,0,1,1,0,2.79Z"/><path class="cls-2" d="M111.63,50.64H76a1.4,1.4,0,0,1,0-2.79h35.62a1.4,1.4,0,1,1,0,2.79Z"/><circle id="b6fa6563-5e20-492f-ac6f-1d924df782c1" class="cls-1" cx="63.58" cy="25.77" r="4.94"/><path id="bcd12bac-9f30-4deb-ae50-48c1cb737c9b-583" class="cls-3" d="M63.1,27.65a.55.55,0,0,1-.31-.1h0l-1.16-.88a.52.52,0,0,1-.09-.73.51.51,0,0,1,.72-.09l.75.57,1.78-2.31a.51.51,0,0,1,.72-.1h0v0a.51.51,0,0,1,.09.72l-2.08,2.73a.54.54,0,0,1-.41.2Z"/><circle id="b95850ed-3210-4af9-b38f-3ce1288a2453" class="cls-4" cx="64.09" cy="46.89" r="4.94"/><circle id="b1885188-7f5c-4441-a082-07b02d322a90" class="cls-4" cx="63.58" cy="68.02" r="4.94"/><path class="cls-2" d="M105.87,67.05H76a1.4,1.4,0,0,1,0-2.79h29.86a1.4,1.4,0,1,1,0,2.79Z"/><path class="cls-2" d="M111.63,71.77H76A1.4,1.4,0,1,1,76,69h35.61a1.4,1.4,0,1,1,0,2.79Z"/><path class="cls-1" d="M126.76,10.66H116.61a2.79,2.79,0,0,1-2.79-2.8h0V.37A.16.16,0,0,1,114,.2a.2.2,0,0,1,.11,0l12.77,10.12a.17.17,0,0,1,0,.24A.17.17,0,0,1,126.76,10.66Z"/><path class="cls-3" d="M50.66,95.62,11.87,103.8a4.32,4.32,0,0,1-5.12-3.33L.09,68.88a4.34,4.34,0,0,1,3.34-5.12l38.79-8.17a4.32,4.32,0,0,1,5.12,3.33L54,90.51A4.31,4.31,0,0,1,50.66,95.62Z"/><path class="cls-5" d="M50.66,95.62,11.87,103.8a4.32,4.32,0,0,1-5.12-3.33L.09,68.88a4.34,4.34,0,0,1,3.34-5.12l38.79-8.17a4.32,4.32,0,0,1,5.12,3.33L54,90.51A4.31,4.31,0,0,1,50.66,95.62ZM3.53,64.26A3.83,3.83,0,0,0,.59,68.78l6.66,31.58a3.8,3.8,0,0,0,4.51,2.94l38.8-8.17a3.82,3.82,0,0,0,2.94-4.52L46.85,59a3.83,3.83,0,0,0-4.52-3Z"/><path id="b3d30341-bfe2-418c-85c9-1bd82b5f5e0c-584" class="cls-2" d="M39.81,66,20.23,70.13a.7.7,0,0,1-.82-.48.67.67,0,0,1,.48-.81h0l19.93-4.2c.78.43.53,1.25,0,1.37Z"/><path id="ba7e3b3b-1e3b-4053-b678-ceb2b593f6ee-585" class="cls-2" d="M40.54,69.43,21,73.56a.69.69,0,0,1-.82-.47.66.66,0,0,1,.47-.82h0l19.93-4.2c.77.44.53,1.25,0,1.37Z"/><path id="f6076b75-2d9c-4839-8b09-e00257d358cf-586" class="cls-2" d="M17.14,76.41l-6,1.26a.77.77,0,0,1-.89-.58L8.79,70a.74.74,0,0,1,.58-.89l6-1.26a.74.74,0,0,1,.89.58l1.49,7A.77.77,0,0,1,17.14,76.41Z"/><path id="acc57b87-b2e4-43d3-aa96-a8e2462d330c-587" class="cls-2" d="M42,76.48l-29.88,6.3a.7.7,0,0,1-.82-.48.68.68,0,0,1,.47-.82h0L42,75.1c.78.44.53,1.26,0,1.38Z"/><path id="e5415755-f7b6-4857-8e09-1413b7f93e97-588" class="cls-2" d="M42.69,79.91l-29.88,6.3a.7.7,0,0,1-.83-.47.68.68,0,0,1,.48-.82h0l30.24-6.37C43.5,79,43.26,79.79,42.69,79.91Z"/><path id="afce3f4d-2700-4434-8207-f3b7a686e1c3-589" class="cls-2" d="M43.41,83.35l-29.88,6.3a.7.7,0,0,1-.82-.48.67.67,0,0,1,.47-.82h0L43.45,82c.78.44.53,1.26,0,1.38Z"/><path id="abb1f551-863d-408b-9aec-d87e952e72e4-590" class="cls-2" d="M44.13,86.78l-29.88,6.3a.7.7,0,0,1-.82-.47.67.67,0,0,1,.48-.82h0l30.23-6.37c.78.44.54,1.25,0,1.37Z"/><path id="bbed1b24-9150-4534-8e9c-e5347be55157-591" class="cls-2" d="M44.86,90.22,15,96.51a.68.68,0,0,1-.82-.47.66.66,0,0,1,.47-.82h0L44.9,88.84c.78.44.53,1.26,0,1.38Z"/><path class="cls-6" d="M50.13,74.49c-.06.13-.12.25-.17.39l-12.23,3-2.13-2.2-3.74,2.78,3.38,4.26a2,2,0,0,0,2.37.62l13.27-5.43a2.66,2.66,0,1,0-.57-3.73l-.18.28Z"/><path class="cls-6" d="M8.38,101.51a2.73,2.73,0,0,0,1.8-3.42,3.38,3.38,0,0,0-.18-.44l8.42-23.4-5.85-1L6.13,96.54a2.75,2.75,0,0,0,2.25,5Z"/><polygon class="cls-6" points="30.38 145.44 33.49 145.44 34.98 133.42 30.38 133.42 30.38 145.44"/><polygon class="cls-6" points="12.84 145.44 15.96 145.44 17.44 133.42 12.84 133.42 12.84 145.44"/><circle class="cls-6" cx="23.33" cy="57.03" r="6.24"/><path class="cls-2" d="M178.08,150.3H1.1a1,1,0,0,1,0-2h177a1,1,0,0,1,0,2Z"/><path class="cls-7" d="M29.58,144.42h6.14a3.91,3.91,0,0,1,3.91,3.91h0v.13H29.58Z"/><path class="cls-7" d="M12.05,144.42h6.13a3.91,3.91,0,0,1,3.91,3.91h0v.13h-10Z"/><path class="cls-7" d="M16.11,140.6H12.16A1.14,1.14,0,0,1,11,139.46v-.06l1.87-40.24H13l19-.5,3.73,40.26a1.14,1.14,0,0,1-1,1.25h0l-4.43.36a1.16,1.16,0,0,1-1.21-.91L23.43,111a.38.38,0,0,0-.38-.3h0a.38.38,0,0,0-.37.31l-5.45,28.72A1.15,1.15,0,0,1,16.11,140.6Z"/><path class="cls-7" d="M21.15,63.18a4.28,4.28,0,0,1-1.73-.31l-.73-.26a6,6,0,0,1-3.59-5.38,7.77,7.77,0,0,1,2.89-6,11.25,11.25,0,0,1,6.31-2.39c2.46-.18,5.22.44,6.59,2.48a2.17,2.17,0,0,1,.41,1.86,1.21,1.21,0,0,1-.34.52c-.61.54-1.22.13-1.85.1a2,2,0,0,0-1.9,1.46,4.32,4.32,0,0,0,.07,2.54,6.7,6.7,0,0,1,.32,1.54A1.57,1.57,0,0,1,27,60.75a1.78,1.78,0,0,1-1.77-.19,13.19,13.19,0,0,0-1.58-1,1.4,1.4,0,0,0-1.7.34,1.69,1.69,0,0,0-.21.62c-.31,1.38-.24,1.3-.54,2.67Z"/><path class="cls-1" d="M17.35,78.4l-5.77-2.21a1.23,1.23,0,0,1-.71-1.59,1.19,1.19,0,0,1,.08-.16l3-5.37a3.4,3.4,0,0,1,6.34,2.46l-1.34,6a1.22,1.22,0,0,1-1.46.93l-.17,0Z"/><path class="cls-1" d="M29.38,78.85a1.22,1.22,0,0,1-.53-.87l-.76-6.09A3.4,3.4,0,0,1,34.63,70l2.51,5.64a1.22,1.22,0,0,1-.63,1.61.52.52,0,0,1-.16.06l-6,1.66A1.21,1.21,0,0,1,29.38,78.85Z"/><path class="cls-1" d="M21.24,103.88a12.3,12.3,0,0,1-8.57-3.1,1.16,1.16,0,0,1-.37-1c.27-2.43,1.59-15,.84-23.41a10.18,10.18,0,0,1,3.3-8.47,10.06,10.06,0,0,1,8.63-2.5h0l.23,0a10.1,10.1,0,0,1,8.08,10.75c-.57,7.54-1.09,17.74-.28,23.51a1.13,1.13,0,0,1-.62,1.17A26.65,26.65,0,0,1,21.24,103.88Z"/><path class="cls-3" d="M172.32,96.35l-34.58,19.4a4.33,4.33,0,0,1-5.88-1.66l-15.8-28.15a4.33,4.33,0,0,1,1.66-5.88l34.58-19.4a4.33,4.33,0,0,1,5.88,1.66L174,90.47A4.32,4.32,0,0,1,172.32,96.35Z"/><path class="cls-5" d="M172.32,96.35l-34.58,19.4a4.33,4.33,0,0,1-5.88-1.66l-15.8-28.15a4.33,4.33,0,0,1,1.66-5.88l34.58-19.4a4.33,4.33,0,0,1,5.88,1.66L174,90.47A4.32,4.32,0,0,1,172.32,96.35ZM118,80.5a3.81,3.81,0,0,0-1.46,5.19l15.79,28.15a3.81,3.81,0,0,0,5.19,1.46l34.58-19.39a3.83,3.83,0,0,0,1.46-5.19L157.74,62.57a3.81,3.81,0,0,0-5.19-1.46Z"/><path id="b0898467-4323-4072-9ee9-29d386bbe07d-594" class="cls-2" d="M134.58,88l-5.33,3a.75.75,0,0,1-1-.29l-3.52-6.28a.75.75,0,0,1,.28-1l5.33-3a.75.75,0,0,1,1,.29L134.87,87a.75.75,0,0,1-.29,1Z"/><path id="aea6c33f-bf9b-47d5-9d2e-017fc614339c-595" class="cls-2" d="M158.29,80.68,131.66,95.62a.71.71,0,0,1-.93-.21.68.68,0,0,1,.21-.92l0,0,26.95-15.11C158.79,79.54,158.8,80.39,158.29,80.68Z"/><path id="b16b06d0-f954-457b-b4c1-332719c9f6d6-596" class="cls-2" d="M160,83.74,133.38,98.68a.69.69,0,0,1-.93-.21.67.67,0,0,1,.21-.92l0,0,26.95-15.11c.87.18.88,1,.37,1.32Z"/><path id="b3c0d144-cc2c-4ac0-a007-a1ff15c76ba0-597" class="cls-2" d="M161.73,86.8l-26.64,14.94a.68.68,0,0,1-.92-.21.66.66,0,0,1,.2-.92l0,0,26.95-15.11c.88.18.88,1,.38,1.32Z"/><path id="b05e8afe-5132-428a-bb53-4b9505cb52a3-598" class="cls-2" d="M163.44,89.86,136.81,104.8a.69.69,0,0,1-.93-.2.69.69,0,0,1,.21-.93h0l26.95-15.12c.87.19.88,1,.37,1.32Z"/><path id="a26c59cb-bc72-4a1e-9571-41d1cd64f8ea-599" class="cls-2" d="M165.16,92.92l-26.63,14.94a.69.69,0,0,1-.93-.2.68.68,0,0,1,.21-.93h0L164.79,91.6c.87.19.88,1,.37,1.32Z"/><path id="b4188fdd-8694-46fd-b6a9-2365408da1f7-592" class="cls-2" d="M153.11,71.32l-17.45,9.79a.69.69,0,0,1-.93-.21.68.68,0,0,1,.21-.92l0,0,17.77-10c.87.18.88,1,.37,1.32Z"/><path id="e79bc6ad-6d6d-496e-bd80-f918a84d8140-593" class="cls-2" d="M154.83,74.38l-17.45,9.79a.69.69,0,0,1-.93-.2.68.68,0,0,1,.21-.93l0,0,17.76-10c.88.19.89,1,.38,1.32Z"/><polygon class="cls-6" points="168.53 142.36 165.85 143.54 160.03 133.75 163.99 132.01 168.53 142.36"/><polygon class="cls-6" points="132.52 145.62 129.59 145.62 128.2 134.32 132.52 134.32 132.52 145.62"/><circle class="cls-6" cx="145.18" cy="60.1" r="5.87"/><path class="cls-6" d="M122.68,96.8a2.4,2.4,0,0,0,2-2.73,2.73,2.73,0,0,0-.1-.41l6.76-5.22L127.17,87l-5.77,5.18a2.41,2.41,0,0,0,1.28,4.62Z"/><path class="cls-1" d="M126.37,92.87a1.08,1.08,0,0,1-1.37-.25l-1.85-2.24a1.07,1.07,0,0,1,.14-1.51l.06-.05,8-5.64L141,70.45A3.08,3.08,0,0,1,143.51,69a3.8,3.8,0,0,1,.75.06h0a3.09,3.09,0,0,1,2.25,1.74,3.16,3.16,0,0,1-.1,2.93l-7.12,11.54,0,0Z"/><path class="cls-1" d="M138.41,85.64l-.07,0,0-.07a25.45,25.45,0,0,1,0-10.83,8.5,8.5,0,0,1,8.51-6.88h0A8.51,8.51,0,0,1,155.12,76a29.77,29.77,0,0,1-2.48,12.41l0,.08Z"/><path class="cls-6" d="M160.51,104.39a2.4,2.4,0,0,0-1.19-3.18,3.17,3.17,0,0,0-.4-.14l-.73-8.51-3.48,2.75,1.22,7.66a2.41,2.41,0,0,0,4.58,1.42Z"/><path class="cls-1" d="M158.26,100.18l-2.89.34a1.07,1.07,0,0,1-1.2-.94.25.25,0,0,0,0-.08l-.42-9.76-5.48-15a3.07,3.07,0,0,1,.16-2.94,4.44,4.44,0,0,1,.46-.59,3.08,3.08,0,0,1,2.69-1A3.22,3.22,0,0,1,154,72l3.57,7.5a21.26,21.26,0,0,1,2.06,10l-.4,9.66a1.09,1.09,0,0,1-.94,1Z"/><path class="cls-7" d="M170.36,144.66l-8.65,3.8-.05-.11a3.69,3.69,0,0,1,1.89-4.85h0l5.28-2.31Z"/><path class="cls-7" d="M133.27,148.46h-9.45v-.12a3.68,3.68,0,0,1,3.68-3.68h5.77Z"/><path class="cls-7" d="M161,141.75l-16.32-36.41a.36.36,0,0,0-.47-.19.37.37,0,0,0-.2.24l-9.94,35.17a1.08,1.08,0,0,1-1.15.79l-5.43-.54a1.08,1.08,0,0,1-1-1.16c1.72-21.48,4.45-41.76,12.6-55l.05-.07L151.55,87,168,139.42a1.09,1.09,0,0,1-.69,1.34l-5,1.59a1.08,1.08,0,0,1-1.32-.6Z"/><path class="cls-7" d="M146.23,59.73A2.29,2.29,0,0,0,144,58.9c-.83.08-1.63.37-2.46.37a3.66,3.66,0,0,1-3.13-4.94c.8-1.72,2.79-2.47,4.59-3.06,3.78-1.25,8.11-2.44,11.54-.43A7.18,7.18,0,0,1,158,57.23c-.07,1.59-.68,3.22-.17,4.72.59,1.74,2.47,2.67,4.25,3.12,3.11.78,6.4.66,9.53,1.36S178,69,178.8,72.12a8.71,8.71,0,0,1-1,6.11,15.81,15.81,0,0,1-21.27,6.9l-.79-.43a20.14,20.14,0,0,1-8.15-10,34.22,34.22,0,0,1-1.94-7.37,16.52,16.52,0,0,1,.61-7.05A.66.66,0,0,0,146.23,59.73Z"/></svg>